<svg width="30" height="14" viewBox="0 0 30 14" fill="none" xmlns="http://www.w3.org/2000/svg">
<g clip-path="url(#clip0_1_417)">
<path fill-rule="evenodd" clip-rule="evenodd" d="M7.39998 12.7998H14.2L17.3 1.19971H7.39998C4.19998 1.19971 1.59998 3.79971 1.59998 6.99971C1.59998 10.1998 4.19998 12.7998 7.39998 12.7998Z" fill="white"/>
<path fill-rule="evenodd" clip-rule="evenodd" d="M22.6 0H7.40002C3.50002 0 0.400024 3.1 0.400024 7C0.400024 10.9 3.50002 14 7.40002 14H22.6C26.5 14 29.6 10.9 29.6 7C29.6 3.1 26.4 0 22.6 0ZM1.60002 7C1.60002 3.8 4.20002 1.2 7.40002 1.2H17.3L14.2 12.8H7.40002C4.20002 12.8 1.60002 10.2 1.60002 7Z" fill="#0066FF"/>
<path d="M24.6001 4.0001C24.8001 4.2001 24.8001 4.6001 24.6001 4.8001L22.5001 7.0001L24.7001 9.2001C24.9001 9.4001 24.9001 9.8001 24.7001 10.0001C24.5001 10.2001 24.1001 10.2001 23.9001 10.0001L21.7001 7.8001L19.5001 10.0001C19.3001 10.2001 18.9001 10.2001 18.7001 10.0001C18.5001 9.8001 18.5001 9.4001 18.7001 9.2001L20.8001 7.0001L18.6001 4.8001C18.4001 4.6001 18.4001 4.2001 18.6001 4.0001C18.8001 3.8001 19.2001 3.8001 19.4001 4.0001L21.6001 6.2001L23.8001 4.0001C24.0001 3.8001 24.4001 3.8001 24.6001 4.0001Z" fill="white"/>
<path d="M12.7 4.09971C12.9 4.29971 13 4.69971 12.8 4.89971L8.6 9.79971C8.5 9.89971 8.4 9.99971 8.3 9.99971C8.1 10.0998 7.8 10.0998 7.6 9.89971L5.4 7.69971C5.2 7.49971 5.2 7.09971 5.4 6.89971C5.6 6.69971 6 6.69971 6.2 6.89971L8 8.59971L11.8 4.09971C12 3.89971 12.4 3.89971 12.7 4.09971Z" fill="#0066FF"/>
</g>
<defs>
<clipPath id="clip0_1_417">
<rect width="30" height="14" fill="white"/>
</clipPath>
</defs>
</svg>
