<svg width="18" height="18" viewBox="0 0 18 18" fill="none" xmlns="http://www.w3.org/2000/svg">
<path d="M9.00144 1.05713C6.966 1.05713 4.9311 1.83113 3.38202 3.38021C0.284038 6.47819 0.284038 11.5209 3.38202 14.6191C6.48 17.7169 11.5171 17.7169 14.6151 14.6191C17.7133 11.5209 17.7188 6.47819 14.6209 3.38021C13.0718 1.83113 11.0369 1.05713 9.00144 1.05713ZM8.43894 2.15963H8.46144V8.45405H5.20452C5.30892 6.60185 5.94162 4.78475 7.11144 3.38579C7.52004 2.89709 7.9677 2.48885 8.43894 2.15963ZM9.54144 2.15963H9.5526C10.0494 2.50744 10.4978 2.91977 10.8859 3.38579C12.0555 4.78475 12.6884 6.60167 12.7926 8.45405H9.54144V2.15963ZM6.28452 2.68829C4.93308 4.30433 4.20426 6.36245 4.09644 8.45405H2.15586C2.27952 6.88355 2.9376 5.34905 4.14126 4.14521C4.75678 3.52799 5.48414 3.03356 6.28452 2.68829ZM11.7239 2.69945C12.5178 3.04497 13.2391 3.53739 13.8501 4.15079C15.0534 5.35409 15.7165 6.88499 15.8414 8.45387H13.9009C13.7932 6.36767 13.0687 4.31387 11.7239 2.69945ZM2.15586 9.53405H4.09626C4.20246 11.6289 4.9311 13.6866 6.28452 15.3052C5.48657 14.9611 4.76122 14.4686 4.14702 13.8539C2.94102 12.6479 2.27934 11.1076 2.15586 9.53405ZM5.20452 9.53405H8.46144V15.8452H8.4501C7.97418 15.5144 7.52382 15.1009 7.11144 14.6077C5.93928 13.206 5.30694 11.3902 5.20452 9.53405ZM9.54144 9.53405H12.7926C12.6904 11.3898 12.0578 13.206 10.8859 14.6077C10.4722 15.1022 10.0188 15.5138 9.54126 15.8452V9.53387L9.54144 9.53405ZM13.9009 9.53405H15.847C15.7248 11.1074 15.0568 12.6472 13.8501 13.854C13.2349 14.4714 12.5076 14.9658 11.7072 15.3106C11.709 15.3086 11.7112 15.307 11.7128 15.305C13.0664 13.6865 13.795 11.6287 13.901 9.53369L13.9009 9.53405Z" fill="black"/>
</svg>
