<svg width="16" height="16" viewBox="0 0 16 16" fill="none" xmlns="http://www.w3.org/2000/svg">
<g clip-path="url(#clip0_1_426)">
<path d="M15.9965 3.0385C15.408 3.3 14.7765 3.4765 14.1115 3.555C14.789 3.149 15.3095 2.506 15.555 1.74C14.92 2.115 14.2185 2.39 13.471 2.536C12.872 1.8985 12.019 1.5 11.075 1.5C9.26201 1.5 7.79351 2.969 7.79351 4.7815C7.79351 5.0385 7.82201 5.2895 7.87851 5.5295C5.15001 5.3915 2.73201 4.085 1.11351 2.1C0.831012 2.585 0.668512 3.149 0.668512 3.75C0.668512 4.89 1.24851 5.8935 2.12851 6.4825C1.59051 6.465 1.08451 6.3175 0.642012 6.0725V6.1125C0.642012 7.7035 1.77201 9.03 3.27401 9.3315C2.99901 9.4065 2.70901 9.4465 2.40901 9.4465C2.19751 9.4465 1.99251 9.4265 1.79251 9.388C2.20951 10.691 3.42251 11.64 4.85751 11.667C3.73501 12.547 2.32001 13.072 0.782512 13.072C0.517512 13.072 0.256012 13.057 -0.000488281 13.027C1.45251 13.957 3.17751 14.5 5.03101 14.5C11.067 14.5 14.3685 9.5 14.3685 5.1625C14.3685 5.0205 14.3645 4.8785 14.3585 4.7375C15 4.275 15.556 3.6975 15.9965 3.0385Z" fill="black"/>
</g>
<defs>
<clipPath id="clip0_1_426">
<rect width="16" height="16" fill="white"/>
</clipPath>
</defs>
</svg>
