<svg width="49" height="49" viewBox="0 0 49 49" fill="none" xmlns="http://www.w3.org/2000/svg">
<g clip-path="url(#clip0_1_368)">
<path d="M24.5 9.69792C28.1138 9.69792 31.3498 10.9433 33.9019 13.3729L40.8946 6.38021C36.6479 2.42958 31.1048 0 24.5 0C14.9246 0 6.64563 5.49208 2.61334 13.4954L10.7596 19.8144C12.689 14.0058 18.1096 9.69792 24.5 9.69792Z" fill="#EA4335"/>
<path d="M47.9587 25.0614C47.9587 23.4587 47.8056 21.9071 47.5708 20.4167H24.5V29.6246H37.7096C37.1175 32.6462 35.4025 35.2187 32.83 36.9542L40.721 43.0792C45.325 38.8121 47.9587 32.5033 47.9587 25.0614Z" fill="#4285F4"/>
<path d="M10.7494 29.1856C10.2594 27.7054 9.97354 26.1333 9.97354 24.5C9.97354 22.8667 10.2492 21.2946 10.7494 19.8144L2.60312 13.4954C0.939167 16.8029 0 20.5392 0 24.5C0 28.4608 0.939167 32.1971 2.61333 35.5046L10.7494 29.1856Z" fill="#FBBC05"/>
<path d="M24.5 49C31.115 49 36.6785 46.8256 40.721 43.069L32.83 36.944C30.6352 38.4242 27.8075 39.2919 24.5 39.2919C18.1096 39.2919 12.689 34.984 10.7494 29.1754L2.60312 35.4944C6.64562 43.5079 14.9246 49 24.5 49Z" fill="#34A853"/>
</g>
<defs>
<clipPath id="clip0_1_368">
<rect width="49" height="49" fill="white"/>
</clipPath>
</defs>
</svg>
