<svg width="54" height="54" viewBox="0 0 54 54" fill="none" xmlns="http://www.w3.org/2000/svg">
<g clip-path="url(#clip0_1_411)">
<path fill-rule="evenodd" clip-rule="evenodd" d="M19.712 0.133057C19.0053 0.133713 18.3056 0.27358 17.6529 0.544669C17.0003 0.815759 16.4074 1.21276 15.9082 1.713C15.4089 2.21325 15.0132 2.80693 14.7434 3.46015C14.4736 4.11337 14.3352 4.81333 14.336 5.52006C14.3353 6.2267 14.4739 6.92655 14.7437 7.57966C15.0135 8.23276 15.4093 8.82633 15.9085 9.32646C16.4077 9.8266 17.0006 10.2235 17.6532 10.4945C18.3058 10.7656 19.0054 10.9054 19.712 10.9061H25.088V5.52006C25.0888 4.81333 24.9504 4.11337 24.6806 3.46015C24.4108 2.80693 24.0151 2.21325 23.5158 1.713C23.0166 1.21276 22.4237 0.815759 21.7711 0.544669C21.1184 0.27358 20.4187 0.133713 19.712 0.133057ZM19.712 14.4981H5.376C4.66936 14.4987 3.96976 14.6385 3.31716 14.9096C2.66456 15.1806 2.07173 15.5775 1.57252 16.0776C1.07331 16.5778 0.677504 17.1714 0.40769 17.8245C0.137876 18.4776 -0.000657381 19.1774 -4.66702e-07 19.8841C-0.000788797 20.5908 0.137648 21.2907 0.407402 21.944C0.677157 22.5972 1.07295 23.1909 1.57217 23.6911C2.07139 24.1914 2.66426 24.5884 3.31693 24.8594C3.9696 25.1305 4.66927 25.2704 5.376 25.2711H19.712C20.4187 25.2704 21.1184 25.1305 21.7711 24.8594C22.4237 24.5884 23.0166 24.1914 23.5158 23.6911C24.0151 23.1909 24.4108 22.5972 24.6806 21.944C24.9504 21.2907 25.0888 20.5908 25.088 19.8841C25.0887 19.1774 24.9501 18.4776 24.6803 17.8245C24.4105 17.1714 24.0147 16.5778 23.5155 16.0776C23.0163 15.5775 22.4234 15.1806 21.7708 14.9096C21.1182 14.6385 20.4186 14.4987 19.712 14.4981Z" fill="#097EFF"/>
<path fill-rule="evenodd" clip-rule="evenodd" d="M53.76 19.8841C53.7607 19.1774 53.6221 18.4776 53.3523 17.8245C53.0825 17.1714 52.6867 16.5778 52.1875 16.0776C51.6883 15.5775 51.0954 15.1806 50.4428 14.9096C49.7902 14.6385 49.0906 14.4987 48.384 14.4981C47.6774 14.4987 46.9778 14.6385 46.3252 14.9096C45.6726 15.1806 45.0797 15.5775 44.5805 16.0776C44.0813 16.5778 43.6855 17.1714 43.4157 17.8245C43.1459 18.4776 43.0073 19.1774 43.008 19.8841V25.2711H48.384C49.0907 25.2704 49.7904 25.1305 50.4431 24.8594C51.0957 24.5884 51.6886 24.1914 52.1878 23.6911C52.6871 23.1909 53.0828 22.5972 53.3526 21.944C53.6224 21.2907 53.7608 20.5908 53.76 19.8841ZM39.424 19.8841V5.52006C39.4248 4.81333 39.2864 4.11337 39.0166 3.46015C38.7468 2.80693 38.3511 2.21325 37.8518 1.713C37.3526 1.21276 36.7597 0.815759 36.1071 0.544669C35.4544 0.27358 34.7547 0.133713 34.048 0.133057C33.3413 0.133713 32.6416 0.27358 31.9889 0.544669C31.3363 0.815759 30.7434 1.21276 30.2442 1.713C29.7449 2.21325 29.3492 2.80693 29.0794 3.46015C28.8096 4.11337 28.6712 4.81333 28.672 5.52006V19.8841C28.6712 20.5908 28.8096 21.2907 29.0794 21.944C29.3492 22.5972 29.7449 23.1909 30.2442 23.6911C30.7434 24.1914 31.3363 24.5884 31.9889 24.8594C32.6416 25.1305 33.3413 25.2704 34.048 25.2711C34.7547 25.2704 35.4544 25.1305 36.1071 24.8594C36.7597 24.5884 37.3526 24.1914 37.8518 23.6911C38.3511 23.1909 38.7468 22.5972 39.0166 21.944C39.2864 21.2907 39.4248 20.5908 39.424 19.8841Z" fill="#097EFF"/>
<path fill-rule="evenodd" clip-rule="evenodd" d="M34.048 54.0001C34.7547 53.9994 35.4544 53.8595 36.1071 53.5884C36.7597 53.3174 37.3526 52.9204 37.8518 52.4201C38.3511 51.9199 38.7468 51.3262 39.0166 50.673C39.2864 50.0198 39.4248 49.3198 39.424 48.6131C39.4247 47.9064 39.2861 47.2066 39.0163 46.5535C38.7465 45.9004 38.3507 45.3068 37.8515 44.8067C37.3523 44.3065 36.7594 43.9096 36.1068 43.6386C35.4542 43.3675 34.7546 43.2277 34.048 43.2271H28.672V48.6131C28.6712 49.3198 28.8096 50.0198 29.0794 50.673C29.3492 51.3262 29.7449 51.9199 30.2442 52.4201C30.7434 52.9204 31.3363 53.3174 31.9889 53.5884C32.6416 53.8595 33.3413 53.9994 34.048 54.0001ZM34.048 39.6351H48.384C49.0906 39.6344 49.7902 39.4946 50.4428 39.2235C51.0954 38.9525 51.6883 38.5556 52.1875 38.0555C52.6867 37.5553 53.0825 36.9618 53.3523 36.3087C53.6221 35.6556 53.7607 34.9557 53.76 34.2491C53.7608 33.5423 53.6224 32.8424 53.3526 32.1892C53.0828 31.5359 52.6871 30.9422 52.1878 30.442C51.6886 29.9418 51.0957 29.5448 50.4431 29.2737C49.7904 29.0026 49.0907 28.8627 48.384 28.8621H34.048C33.3413 28.8627 32.6416 29.0026 31.9889 29.2737C31.3363 29.5448 30.7434 29.9418 30.2442 30.442C29.7449 30.9422 29.3492 31.5359 29.0794 32.1892C28.8096 32.8424 28.6712 33.5423 28.672 34.2491C28.6713 34.9557 28.8099 35.6556 29.0797 36.3087C29.3495 36.9618 29.7453 37.5553 30.2445 38.0555C30.7437 38.5556 31.3366 38.9525 31.9892 39.2235C32.6418 39.4946 33.3414 39.6344 34.048 39.6351Z" fill="#ECB12F"/>
<path fill-rule="evenodd" clip-rule="evenodd" d="M7.41791e-07 34.2491C-0.000656173 34.9557 0.137877 35.6556 0.407691 36.3087C0.677505 36.9618 1.07332 37.5553 1.57252 38.0555C2.07173 38.5556 2.66456 38.9525 3.31716 39.2235C3.96976 39.4946 4.66936 39.6344 5.376 39.6351C6.08264 39.6344 6.78224 39.4946 7.43484 39.2235C8.08744 38.9525 8.68027 38.5556 9.17948 38.0555C9.67869 37.5553 10.0745 36.9618 10.3443 36.3087C10.6141 35.6556 10.7527 34.9557 10.752 34.2491V28.8621H5.376C4.66919 28.8627 3.96943 29.0026 3.3167 29.2738C2.66397 29.5449 2.07105 29.942 1.57182 30.4424C1.07258 30.9427 0.676813 31.5365 0.407116 32.1898C0.13742 32.8432 -0.000919036 33.5423 7.41791e-07 34.2491ZM14.336 34.2491V48.6131C14.3352 49.3198 14.4736 50.0198 14.7434 50.673C15.0132 51.3262 15.4089 51.9199 15.9082 52.4201C16.4074 52.9204 17.0003 53.3174 17.6529 53.5884C18.3056 53.8595 19.0053 53.9994 19.712 54.0001C20.4187 53.9994 21.1184 53.8595 21.7711 53.5884C22.4237 53.3174 23.0166 52.9204 23.5158 52.4201C24.0151 51.9199 24.4108 51.3262 24.6806 50.673C24.9504 50.0198 25.0888 49.3198 25.088 48.6131V34.2501C25.0888 33.5433 24.9504 32.8434 24.6806 32.1902C24.4108 31.5369 24.0151 30.9433 23.5158 30.443C23.0166 29.9428 22.4237 29.5458 21.7711 29.2747C21.1184 29.0036 20.4187 28.8637 19.712 28.8631C19.0053 28.8637 18.3056 29.0036 17.6529 29.2747C17.0003 29.5458 16.4074 29.9428 15.9082 30.443C15.4089 30.9433 15.0132 31.5369 14.7434 32.1902C14.4736 32.8434 14.3352 33.5423 14.336 34.2491Z" fill="#ECB12F"/>
</g>
<defs>
<clipPath id="clip0_1_411">
<rect width="54" height="54" fill="white"/>
</clipPath>
</defs>
</svg>
